<?xml version="1.0" standalone="no"?>
<!DOCTYPE svg PUBLIC "-//W3C//DTD SVG 1.1//EN" "http://www.w3.org/Graphics/SVG/1.1/DTD/svg11.dtd" >
<svg xmlns="http://www.w3.org/2000/svg" xmlns:xlink="http://www.w3.org/1999/xlink" version="1.1">
<metadata>
Created by FontForge 20190801 at Sat Aug  1 09:26:57 2020
 By www-data
Copyright (c) 2019 by Hugo Jourdan. All rights reserved.
</metadata>
<defs>
<font id="OrnamentumRegular" horiz-adv-x="580" >
  <font-face 
    font-family="OrnamentumRegular"
    font-weight="400"
    font-stretch="normal"
    units-per-em="1000"
    panose-1="0 0 5 0 0 0 0 0 0 0"
    ascent="800"
    descent="-200"
    cap-height="380"
    bbox="15 -150 821 520"
    underline-thickness="50"
    underline-position="-100"
    unicode-range="U+0020-005A"
  />
<missing-glyph horiz-adv-x="335" 
d="M275 -150h-213v670h213v-670zM113 475v-22h43v-25h-44v-22h111v22h-44v25h44v22h-110zM112 389v-70h111v23h-44v47h-67zM156 342h-22v24h22v-24zM112 301v-22h44v-25h-44v-22h67v47h44v22h-111zM201 261v-45h-89v-22h111v67h-22zM156 179v-38h23v16h22v-32h-67v54h-22
v-76h111v76h-67zM112 63v-76h111v76h-111zM201 9h-67v32h67v-32zM112 -28v-22h47l-47 -32v-22h111v22h-68l47 32h21v22h-111z" />
    <glyph glyph-name=".notdef" horiz-adv-x="335" 
d="M275 -150h-213v670h213v-670zM113 475v-22h43v-25h-44v-22h111v22h-44v25h44v22h-110zM112 389v-70h111v23h-44v47h-67zM156 342h-22v24h22v-24zM112 301v-22h44v-25h-44v-22h67v47h44v22h-111zM201 261v-45h-89v-22h111v67h-22zM156 179v-38h23v16h22v-32h-67v54h-22
v-76h111v76h-67zM112 63v-76h111v76h-111zM201 9h-67v32h67v-32zM112 -28v-22h47l-47 -32v-22h111v22h-68l47 32h21v22h-111z" />
    <glyph glyph-name=".null" horiz-adv-x="0" 
 />
    <glyph glyph-name="nonmarkingreturn" horiz-adv-x="333" 
 />
    <glyph glyph-name="space" unicode=" " horiz-adv-x="300" 
 />
    <glyph glyph-name="comma" unicode="," horiz-adv-x="219" 
d="M199 0q-26 0 -45.5 -3.5t-31 -13t-18 -17.5t-9.5 -24t-3.5 -26t-0.5 -30h-76v76q26 0 45.5 3.5t31 12.5t18 17.5t9.5 24t3.5 25.5t0.5 30v1h76v-76z" />
    <glyph glyph-name="hyphen" unicode="-" horiz-adv-x="282" 
d="M262 228v-76h-242v76h242z" />
    <glyph glyph-name="period" unicode="." horiz-adv-x="124" 
d="M104 76v-76h-84v76h84z" />
    <glyph glyph-name="zero" unicode="0" horiz-adv-x="562" 
d="M542 152q-74 0 -117.5 -49.5t-43.5 -102.5h-361v228q74 0 117.5 49.5t43.5 102.5h361v-228zM422.5 125.5q43.5 49.5 43.5 102.5v76h-209q-74 0 -117.5 -49.5t-43.5 -102.5v-76h209q74 0 117.5 49.5z" />
    <glyph glyph-name="one" unicode="1" horiz-adv-x="469" 
d="M449 0h-76v304h-116q-74 0 -117.5 -49.5t-43.5 -102.5h-76v76q74 0 117.5 49.5t43.5 102.5h268v-380z" />
    <glyph glyph-name="two" unicode="2" 
d="M121 76h439v-76h-538v76q74 0 117.5 49.5t43.5 102.5h278q-46 76 -138 76h-64q-74 0 -117.5 -49.5t-43.5 -102.5h-76v76q74 0 117.5 49.5t43.5 102.5h216q0 -53 43.5 -102.5t117.5 -49.5v-76h-301q-92 0 -138 -76z" />
    <glyph glyph-name="three" unicode="3" 
d="M442.5 277.5q43.5 -49.5 117.5 -49.5v-76q-74 0 -117.5 -49.5t-43.5 -102.5h-379v76h303q92 0 138 76h-312v76h312q-46 76 -138 76h-303v76h379q0 -53 43.5 -102.5z" />
    <glyph glyph-name="four" unicode="4" 
d="M560 152h-89v-152h-76v152h-375v76q74 0 117.5 49.5t43.5 102.5h290v-152h89v-76zM395 228v76h-138q-92 0 -138 -76h276z" />
    <glyph glyph-name="five" unicode="5" 
d="M560 152q-74 0 -117.5 -49.5t-43.5 -102.5h-379v76h303q92 0 138 76h-280q0 53 -43.5 102.5t-117.5 49.5v76h538v-76h-439q46 -76 138 -76h303v-76z" />
    <glyph glyph-name="six" unicode="6" 
d="M560 152q-74 0 -117.5 -49.5t-43.5 -102.5h-379v228q74 0 117.5 49.5t43.5 102.5h377v-76h-301q-92 0 -138 -76h441v-76zM461 152h-365v-76h227q92 0 138 76z" />
    <glyph glyph-name="seven" unicode="7" horiz-adv-x="581" 
d="M561 304q-50 0 -128 -90t-78 -138h-1v-76h-173v76h64q50 0 128 91t78 137h-194q-74 0 -117.5 -49.5t-43.5 -102.5h-76v76q74 0 117.5 49.5t43.5 102.5h379v-76h1z" />
    <glyph glyph-name="eight" unicode="8" 
d="M560 152q-74 0 -117.5 -49.5t-43.5 -102.5h-218q0 53 -43.5 102.5t-117.5 49.5v76h140q-46 76 -138 76v76h537v-76q-92 0 -138 -76h139v-76zM259 228h63q92 0 138 76h-339q46 -76 138 -76zM461 152h-342q46 -76 138 -76h66q92 0 138 76z" />
    <glyph glyph-name="nine" unicode="9" 
d="M560 152q-74 0 -117.5 -49.5t-43.5 -102.5h-377v76h301q92 0 138 76h-441v76q74 0 117.5 49.5t43.5 102.5h379v-228zM484 304h-227q-92 0 -138 -76h365v76z" />
    <glyph glyph-name="A" unicode="A" horiz-adv-x="615" 
d="M595 304q-40 0 -71 -41.5t-44 -92t-13 -94.5v-76h-170v76h63q56 0 93 76h-357v-152h-76v228q74 0 117.5 49.5t43.5 102.5h414v-76zM488 304h-231q-92 0 -138 -76h360q9 41 9 76z" />
    <glyph glyph-name="A" unicode="a" horiz-adv-x="615" 
d="M595 304q-40 0 -71 -41.5t-44 -92t-13 -94.5v-76h-170v76h63q56 0 93 76h-357v-152h-76v228q74 0 117.5 49.5t43.5 102.5h414v-76zM488 304h-231q-92 0 -138 -76h360q9 41 9 76z" />
    <glyph glyph-name="B" unicode="B" horiz-adv-x="650" 
d="M630 152q-76 0 -118.5 -47.5t-42.5 -104.5h-449v76q38 0 67.5 44t42.5 94.5t14 89.5v76h411v-76h-4q-93 -1 -136 -76h215v-76zM266 304q-68 0 -108 -76h160q87 1 136 76h-188zM393 76h1q87 0 135 76h-398q-8 -42 -8 -76h270z" />
    <glyph glyph-name="B" unicode="b" horiz-adv-x="650" 
d="M630 152q-76 0 -118.5 -47.5t-42.5 -104.5h-449v76q38 0 67.5 44t42.5 94.5t14 89.5v76h411v-76h-4q-93 -1 -136 -76h215v-76zM266 304q-68 0 -108 -76h160q87 1 136 76h-188zM393 76h1q87 0 135 76h-398q-8 -42 -8 -76h270z" />
    <glyph glyph-name="C" unicode="C" horiz-adv-x="640" 
d="M620 304h-478q0 -39 13 -89.5t43 -94.5t68 -44h117q71 0 110.5 45.5t50.5 106.5h76v-76q-75 0 -114.5 -45.5t-47.5 -106.5h-295v76q0 50 -13.5 99.5t-47.5 89t-82 39.5h4v76h596v-76z" />
    <glyph glyph-name="C" unicode="c" horiz-adv-x="640" 
d="M620 304h-478q0 -39 13 -89.5t43 -94.5t68 -44h117q71 0 110.5 45.5t50.5 106.5h76v-76q-75 0 -114.5 -45.5t-47.5 -106.5h-295v76q0 50 -13.5 99.5t-47.5 89t-82 39.5h4v76h596v-76z" />
    <glyph glyph-name="D" unicode="D" horiz-adv-x="656" 
d="M519.5 278q44.5 -50 116.5 -50v-76q-72 0 -116.5 -50t-44.5 -102h-312v76q0 50 -13.5 99.5t-47.5 89t-82 39.5v76h455q0 -52 44.5 -102zM502 109q40 33 53 81q-13 48 -53 81t-103 33h-257q0 -40 13 -90.5t43 -94t68 -43.5h133q63 0 103 33z" />
    <glyph glyph-name="D" unicode="d" horiz-adv-x="656" 
d="M519.5 278q44.5 -50 116.5 -50v-76q-72 0 -116.5 -50t-44.5 -102h-312v76q0 50 -13.5 99.5t-47.5 89t-82 39.5v76h455q0 -52 44.5 -102zM502 109q40 33 53 81q-13 48 -53 81t-103 33h-257q0 -40 13 -90.5t43 -94t68 -43.5h133q63 0 103 33z" />
    <glyph glyph-name="E" unicode="E" horiz-adv-x="610" 
d="M590 228v-76q-74 0 -117.5 -49.5t-43.5 -102.5h-281v76q0 44 -13 94.5t-44 92t-71 41.5v76h530v-76h-423q0 -36 9 -76h240v-76h-214q37 -76 93 -76h98q74 0 117.5 49.5t43.5 102.5h76z" />
    <glyph glyph-name="E" unicode="e" horiz-adv-x="610" 
d="M590 228v-76q-74 0 -117.5 -49.5t-43.5 -102.5h-281v76q0 44 -13 94.5t-44 92t-71 41.5v76h530v-76h-423q0 -36 9 -76h240v-76h-214q37 -76 93 -76h98q74 0 117.5 49.5t43.5 102.5h76z" />
    <glyph glyph-name="F" unicode="F" horiz-adv-x="570" 
d="M142 304q0 -35 10 -76h241v-76h-215q37 -76 88 -76h4v-76h-107v76q0 50 -13.5 99.5t-47.5 89t-82 39.5v76h530v-76h-408z" />
    <glyph glyph-name="F" unicode="f" horiz-adv-x="570" 
d="M142 304q0 -35 10 -76h241v-76h-215q37 -76 88 -76h4v-76h-107v76q0 50 -13.5 99.5t-47.5 89t-82 39.5v76h530v-76h-408z" />
    <glyph glyph-name="G" unicode="G" horiz-adv-x="610" 
d="M184 264.5q-34 -39.5 -47.5 -89t-13.5 -99.5h230q89 0 137 76h-161v76h261v-76q-76 0 -118.5 -47.5t-42.5 -104.5h-409v76q38 0 68 43.5t43 94t13 90.5v76h446v-76h-324q-48 0 -82 -39.5z" />
    <glyph glyph-name="G" unicode="g" horiz-adv-x="610" 
d="M184 264.5q-34 -39.5 -47.5 -89t-13.5 -99.5h230q89 0 137 76h-161v76h261v-76q-76 0 -118.5 -47.5t-42.5 -104.5h-409v76q38 0 68 43.5t43 94t13 90.5v76h446v-76h-324q-48 0 -82 -39.5z" />
    <glyph glyph-name="H" unicode="H" horiz-adv-x="584" 
d="M564 380v-229q-72 0 -116.5 -50t-44.5 -102h-169v76h93q95 0 141 77h-372v-152h-76v228q72 0 116.5 50t44.5 102h169v-76h-93q-97 0 -140 -76h371v152h76z" />
    <glyph glyph-name="H" unicode="h" horiz-adv-x="584" 
d="M564 380v-229q-72 0 -116.5 -50t-44.5 -102h-169v76h93q95 0 141 77h-372v-152h-76v228q72 0 116.5 50t44.5 102h169v-76h-93q-97 0 -140 -76h371v152h76z" />
    <glyph glyph-name="I" unicode="I" 
d="M482 154q-1 14 -7.5 33t-22 48.5t-50 49t-81.5 19.5h-76q18 -40 38.5 -75t47 -72t57.5 -59t60 -22h108q4 0 4 -3v-70q0 -3 -4 -3h-371q-4 0 -4 3q-2 12 -4.5 23.5t-14 36t-27 42t-45 32t-67.5 15.5q-3 0 -3 3v70q0 3 4 3h68q3 0 3 -3q3 -12 6 -23.5t15 -36.5t28 -42.5
t45.5 -32t66.5 -14.5h98q-21 39 -43 74.5t-51.5 72.5t-63 59t-64.5 22h-108q-4 0 -4 3v70q0 3 4 3h369q3 0 4 -3q2 -13 9 -32t23.5 -48t49.5 -48.5t77 -20.5q4 0 4 -3v-70q0 -3 -4 -3h-70q-4 0 -4 2z" />
    <glyph glyph-name="I" unicode="i" 
d="M482 154q-1 14 -7.5 33t-22 48.5t-50 49t-81.5 19.5h-76q18 -40 38.5 -75t47 -72t57.5 -59t60 -22h108q4 0 4 -3v-70q0 -3 -4 -3h-371q-4 0 -4 3q-2 12 -4.5 23.5t-14 36t-27 42t-45 32t-67.5 15.5q-3 0 -3 3v70q0 3 4 3h68q3 0 3 -3q3 -12 6 -23.5t15 -36.5t28 -42.5
t45.5 -32t66.5 -14.5h98q-21 39 -43 74.5t-51.5 72.5t-63 59t-64.5 22h-108q-4 0 -4 3v70q0 3 4 3h369q3 0 4 -3q2 -13 9 -32t23.5 -48t49.5 -48.5t77 -20.5q4 0 4 -3v-70q0 -3 -4 -3h-70q-4 0 -4 2z" />
    <glyph glyph-name="J" unicode="J" 
d="M560 380v-76q-48 0 -82 -39t-47.5 -89t-13.5 -100v-76h-236q0 57 -42.5 104.5t-118.5 47.5v76h76q0 -52 44.5 -102t116.5 -50h57q38 0 68 44t43 94.5t13 89.5h-257v76h379z" />
    <glyph glyph-name="J" unicode="j" 
d="M560 380v-76q-48 0 -82 -39t-47.5 -89t-13.5 -100v-76h-236q0 57 -42.5 104.5t-118.5 47.5v76h76q0 -52 44.5 -102t116.5 -50h57q38 0 68 44t43 94.5t13 89.5h-257v76h379z" />
    <glyph glyph-name="K" unicode="K" horiz-adv-x="609" 
d="M589 76v-76h-150q0 57 -42.5 104.5t-118.5 47.5h-182v-152h-76v380h76v-152h30q72 0 116.5 50t44.5 102h212v-76h-136q-97 0 -140 -76h131q0 -52 44.5 -101.5t116.5 -50.5h74z" />
    <glyph glyph-name="K" unicode="k" horiz-adv-x="609" 
d="M589 76v-76h-150q0 57 -42.5 104.5t-118.5 47.5h-182v-152h-76v380h76v-152h30q72 0 116.5 50t44.5 102h212v-76h-136q-97 0 -140 -76h131q0 -52 44.5 -101.5t116.5 -50.5h74z" />
    <glyph glyph-name="L" unicode="L" horiz-adv-x="610" 
d="M590 228v-76q-76 0 -118.5 -47.5t-42.5 -104.5h-408v76h-1q38 0 68 44t43 94.5t13 89.5v76h235v-76h-113q-48 0 -82 -39t-47.5 -89t-13.5 -100h230q72 0 116.5 50t44.5 102h76z" />
    <glyph glyph-name="L" unicode="l" horiz-adv-x="610" 
d="M590 228v-76q-76 0 -118.5 -47.5t-42.5 -104.5h-408v76h-1q38 0 68 44t43 94.5t13 89.5v76h235v-76h-113q-48 0 -82 -39t-47.5 -89t-13.5 -100h230q72 0 116.5 50t44.5 102h76z" />
    <glyph glyph-name="M" unicode="M" horiz-adv-x="816" 
d="M678.5 277.5q43.5 -49.5 117.5 -49.5v-76q-74 0 -117.5 -49.5t-43.5 -102.5h-155v76h79q60 0 100.5 33.5t54.5 80.5q-14 47 -54 80.5t-100 33.5v-152q-74 0 -117.5 -49.5t-43.5 -102.5h-267v76q50 0 128 91t78 137h-81q-74 0 -117.5 -49.5t-43.5 -102.5v-152h-76v228
q74 0 117.5 49.5t43.5 102.5h267v-76q-50 0 -128 -90t-78 -138h81q74 0 117.5 49.5t43.5 102.5v152h151q0 -53 43.5 -102.5z" />
    <glyph glyph-name="M" unicode="m" horiz-adv-x="816" 
d="M678.5 277.5q43.5 -49.5 117.5 -49.5v-76q-74 0 -117.5 -49.5t-43.5 -102.5h-155v76h79q60 0 100.5 33.5t54.5 80.5q-14 47 -54 80.5t-100 33.5v-152q-74 0 -117.5 -49.5t-43.5 -102.5h-267v76q50 0 128 91t78 137h-81q-74 0 -117.5 -49.5t-43.5 -102.5v-152h-76v228
q74 0 117.5 49.5t43.5 102.5h267v-76q-50 0 -128 -90t-78 -138h81q74 0 117.5 49.5t43.5 102.5v152h151q0 -53 43.5 -102.5z" />
    <glyph glyph-name="N" unicode="N" horiz-adv-x="646" 
d="M508.5 277.5q43.5 -49.5 117.5 -49.5v-227h-248v75q0 48 -78 138t-128 90h-76v-76q0 -53 43.5 -102.5t117.5 -49.5h70v-76h-146q0 53 -43.5 102.5t-117.5 49.5v228h262v-76q0 -43 72 -130t124 -97h72v75q0 53 -43.5 102.5t-117.5 49.5h-52v76h128q0 -53 43.5 -102.5z" />
    <glyph glyph-name="N" unicode="n" horiz-adv-x="646" 
d="M508.5 277.5q43.5 -49.5 117.5 -49.5v-227h-248v75q0 48 -78 138t-128 90h-76v-76q0 -53 43.5 -102.5t117.5 -49.5h70v-76h-146q0 53 -43.5 102.5t-117.5 49.5v228h262v-76q0 -43 72 -130t124 -97h72v75q0 53 -43.5 102.5t-117.5 49.5h-52v76h128q0 -53 43.5 -102.5z" />
    <glyph glyph-name="O" unicode="O" horiz-adv-x="605" 
d="M585 380v-228q-74 0 -117.5 -49.5t-43.5 -102.5h-404v76q50 0 128 91t78 137v76h359zM509 304h-173q-50 0 -128 -90t-78 -138h218q74 0 117.5 49.5t43.5 102.5v76z" />
    <glyph glyph-name="O" unicode="o" horiz-adv-x="605" 
d="M585 380v-228q-74 0 -117.5 -49.5t-43.5 -102.5h-404v76q50 0 128 91t78 137v76h359zM509 304h-173q-50 0 -128 -90t-78 -138h218q74 0 117.5 49.5t43.5 102.5v76z" />
    <glyph glyph-name="P" unicode="P" 
d="M403 360q3 -13 14 -37.5t27 -44.5t47 -35t69 -15v-76h-464v-152h-76v380h379q1 -7 4 -20zM460 228q-44 76 -137 76h-227v-76h364z" />
    <glyph glyph-name="P" unicode="p" 
d="M403 360q3 -13 14 -37.5t27 -44.5t47 -35t69 -15v-76h-464v-152h-76v380h379q1 -7 4 -20zM460 228q-44 76 -137 76h-227v-76h364z" />
    <glyph glyph-name="Q" unicode="Q" horiz-adv-x="605" 
d="M511 266.5q-43 -37.5 -77 -88.5q18 -43 56 -72t93 -30v-76h-76q0 43 -24.5 83t-71.5 58q-20 -42 -20 -65v-76h-371v228q77 0 119 47.5t42 104.5h404v-76q-31 0 -74 -37.5zM390.5 157.5q71.5 81.5 91.5 146.5h-225q-72 0 -116.5 -50t-44.5 -102v-76h173q50 0 121.5 81.5z
" />
    <glyph glyph-name="Q" unicode="q" horiz-adv-x="605" 
d="M511 266.5q-43 -37.5 -77 -88.5q18 -43 56 -72t93 -30v-76h-76q0 43 -24.5 83t-71.5 58q-20 -42 -20 -65v-76h-371v228q77 0 119 47.5t42 104.5h404v-76q-31 0 -74 -37.5zM390.5 157.5q71.5 81.5 91.5 146.5h-225q-72 0 -116.5 -50t-44.5 -102v-76h173q50 0 121.5 81.5z
" />
    <glyph glyph-name="R" unicode="R" horiz-adv-x="600" 
d="M479.5 270.5q-40.5 -33.5 -54.5 -80.5q14 -47 54.5 -80.5t100.5 -33.5v-76h-76q0 53 -43.5 102.5t-117.5 49.5h-247v-152h-76v228q74 0 117.5 49.5t43.5 102.5h399v-76q-60 0 -100.5 -33.5zM481 304h-224q-92 0 -138 -76h224q92 0 138 76z" />
    <glyph glyph-name="R" unicode="r" horiz-adv-x="600" 
d="M479.5 270.5q-40.5 -33.5 -54.5 -80.5q14 -47 54.5 -80.5t100.5 -33.5v-76h-76q0 53 -43.5 102.5t-117.5 49.5h-247v-152h-76v228q74 0 117.5 49.5t43.5 102.5h399v-76q-60 0 -100.5 -33.5zM481 304h-224q-92 0 -138 -76h224q92 0 138 76z" />
    <glyph glyph-name="S" unicode="S" horiz-adv-x="600" 
d="M120 228h457q3 0 3 -3v-70q0 -3 -3 -3q-38 -1 -67.5 -15.5t-45 -32t-27 -42t-14 -36t-4.5 -23.5q0 -3 -4 -3h-391q-4 0 -4 3v70q0 3 4 3h320q89 0 133 76h-453q-4 0 -4 3v70q0 3 4 3q36 1 65 15t44.5 32.5t27 42t15 37t5.5 23.5q0 2 4 2h392q3 0 3 -3v-70q0 -3 -3 -3
h-320q-93 0 -137 -76z" />
    <glyph glyph-name="S" unicode="s" horiz-adv-x="600" 
d="M120 228h457q3 0 3 -3v-70q0 -3 -3 -3q-38 -1 -67.5 -15.5t-45 -32t-27 -42t-14 -36t-4.5 -23.5q0 -3 -4 -3h-391q-4 0 -4 3v70q0 3 4 3h320q89 0 133 76h-453q-4 0 -4 3v70q0 3 4 3q36 1 65 15t44.5 32.5t27 42t15 37t5.5 23.5q0 2 4 2h392q3 0 3 -3v-70q0 -3 -3 -3
h-320q-93 0 -137 -76z" />
    <glyph glyph-name="T" unicode="T" horiz-adv-x="581" 
d="M561 152h-76v152h-48q-40 0 -71 -41.5t-44 -92t-13 -94.5v-76l-289 1v76l189 -1q38 4 67 45.5t41.5 90.5t12.5 92h-72q-74 0 -117.5 -49.5t-43.5 -102.5h-76v76q74 0 117.5 49.5t43.5 102.5h379v-228z" />
    <glyph glyph-name="T" unicode="t" horiz-adv-x="581" 
d="M561 152h-76v152h-48q-40 0 -71 -41.5t-44 -92t-13 -94.5v-76l-289 1v76l189 -1q38 4 67 45.5t41.5 90.5t12.5 92h-72q-74 0 -117.5 -49.5t-43.5 -102.5h-76v76q74 0 117.5 49.5t43.5 102.5h379v-228z" />
    <glyph glyph-name="U" unicode="U" horiz-adv-x="608" 
d="M588 380v-228q-74 0 -117.5 -49.5t-43.5 -102.5h-407v76q40 0 71 41.5t44 92t13 94.5v76h202v-76h-95q-40 0 -71 -41.5t-44 -92t-13 -94.5h224q74 0 117.5 49.5t43.5 102.5v152h76z" />
    <glyph glyph-name="U" unicode="u" horiz-adv-x="608" 
d="M588 380v-228q-74 0 -117.5 -49.5t-43.5 -102.5h-407v76q40 0 71 41.5t44 92t13 94.5v76h202v-76h-95q-40 0 -71 -41.5t-44 -92t-13 -94.5h224q74 0 117.5 49.5t43.5 102.5v152h76z" />
    <glyph glyph-name="V" unicode="V" horiz-adv-x="608" 
d="M588 380v-228q-77 1 -119.5 -46t-41.5 -106h-264v76q0 50 -13.5 99.5t-47.5 89t-82 39.5h1v76h330v-76h-209q0 -28 8 -65t22.5 -74.5t39.5 -63t54 -25.5h85q72 0 116.5 50t44.5 102v152h76z" />
    <glyph glyph-name="V" unicode="v" horiz-adv-x="608" 
d="M588 380v-228q-77 1 -119.5 -46t-41.5 -106h-264v76q0 50 -13.5 99.5t-47.5 89t-82 39.5h1v76h330v-76h-209q0 -28 8 -65t22.5 -74.5t39.5 -63t54 -25.5h85q72 0 116.5 50t44.5 102v152h76z" />
    <glyph glyph-name="W" unicode="W" horiz-adv-x="841" 
d="M821 380v-228q-77 1 -119.5 -46t-41.5 -106h-152q1 45 -25 85.5t-74 57.5q-7 -32 -7 -67v-76h-239v76q0 50 -13.5 100t-47.5 89t-82 39v76h311v-76h-189q0 -29 8 -66t22.5 -74.5t39.5 -62.5t54 -25h33q29 0 54 25.5t39.5 63t22.5 74.5t8 65v76h236v-76h-114
q-78 1 -119 -100q10 -49 52.5 -88.5t105.5 -39.5q72 -1 116.5 49.5t44.5 102.5v152h76z" />
    <glyph glyph-name="W" unicode="w" horiz-adv-x="841" 
d="M821 380v-228q-77 1 -119.5 -46t-41.5 -106h-152q1 45 -25 85.5t-74 57.5q-7 -32 -7 -67v-76h-239v76q0 50 -13.5 100t-47.5 89t-82 39v76h311v-76h-189q0 -29 8 -66t22.5 -74.5t39.5 -62.5t54 -25h33q29 0 54 25.5t39.5 63t22.5 74.5t8 65v76h236v-76h-114
q-78 1 -119 -100q10 -49 52.5 -88.5t105.5 -39.5q72 -1 116.5 49.5t44.5 102.5v152h76z" />
    <glyph glyph-name="X" unicode="X" horiz-adv-x="738" 
d="M718 228v-76q-77 1 -119.5 -46t-41.5 -106h-180v76q0 35 -7 69q-52 -16 -79.5 -57.5t-26.5 -87.5h-244v76h168q68 0 111.5 44.5t48.5 95.5q-38 87 -91 88h-3q-70 -1 -114 -51t-44 -101h-76v76q77 -1 119.5 46t41.5 106h177v-76q0 -35 7 -69q52 16 79.5 57.5t26.5 87.5
h245v-76h-169q-68 0 -111.5 -44.5t-48.5 -95.5q38 -87 91 -88h6q71 1 114.5 51t43.5 101h76z" />
    <glyph glyph-name="X" unicode="x" horiz-adv-x="738" 
d="M718 228v-76q-77 1 -119.5 -46t-41.5 -106h-180v76q0 35 -7 69q-52 -16 -79.5 -57.5t-26.5 -87.5h-244v76h168q68 0 111.5 44.5t48.5 95.5q-38 87 -91 88h-3q-70 -1 -114 -51t-44 -101h-76v76q77 -1 119.5 46t41.5 106h177v-76q0 -35 7 -69q52 16 79.5 57.5t26.5 87.5
h245v-76h-169q-68 0 -111.5 -44.5t-48.5 -95.5q38 -87 91 -88h6q71 1 114.5 51t43.5 101h76z" />
    <glyph glyph-name="Y" unicode="Y" horiz-adv-x="624" 
d="M604 380v-228h-79q-70 -1 -114 -51t-44 -101h-347v76h271q98 0 141 76h-251v4q-1 57 -43 102.5t-118 45.5v76h76q0 -51 44 -101t114 -51h274v152h76z" />
    <glyph glyph-name="Y" unicode="y" horiz-adv-x="624" 
d="M604 380v-228h-79q-70 -1 -114 -51t-44 -101h-347v76h271q98 0 141 76h-251v4q-1 57 -43 102.5t-118 45.5v76h76q0 -51 44 -101t114 -51h274v152h76z" />
    <glyph glyph-name="Z" unicode="Z" horiz-adv-x="657" 
d="M637 228v-76q-72 0 -116.5 -50.5t-44.5 -101.5h-380v3v-3h-76v76q72 0 116.5 50.5t44.5 101.5h113q88 0 136 76h-410v76h541v-76q-80 0 -136 -48.5t-55 -103.5h-83q-51 0 -94 -21.5t-68 -54.5h275q78 0 120 47t41 105h76z" />
    <glyph glyph-name="Z" unicode="z" horiz-adv-x="657" 
d="M637 228v-76q-72 0 -116.5 -50.5t-44.5 -101.5h-380v3v-3h-76v76q72 0 116.5 50.5t44.5 101.5h113q88 0 136 76h-410v76h541v-76q-80 0 -136 -48.5t-55 -103.5h-83q-51 0 -94 -21.5t-68 -54.5h275q78 0 120 47t41 105h76z" />
    <glyph glyph-name="A_orn1" horiz-adv-x="648" 
d="M511.5 278q44.5 -50 116.5 -50v-228h-76v152h-373q36 -76 87 -76h52v-76h-155v76q0 50 -13.5 99.5t-47.5 89t-82 39.5v76h447q0 -52 44.5 -102zM531 228q-43 76 -140 76h-249q0 -35 10 -76h379z" />
    <glyph glyph-name="A_orn2" horiz-adv-x="648" 
d="M498.5 204.5q13.5 -49.5 47.5 -89t82 -39.5v-76h-447q0 52 -44.5 102t-116.5 50v228h76v-152h373q-36 76 -87 76h-52v76h155v-76q0 -50 13.5 -99.5zM506 76q0 35 -10 76h-379q43 -76 140 -76h249z" />
    <glyph glyph-name="A_orn3" horiz-adv-x="648" 
d="M628 380v-228q-72 0 -116.5 -50t-44.5 -102h-447v76q48 0 82 39.5t47.5 89t13.5 99.5v76h155v-76h-52q-51 0 -87 -76h373v152h76zM531 152h-379q-10 -41 -10 -76h249q97 0 140 76z" />
    <glyph glyph-name="B_orn1" horiz-adv-x="650" 
d="M520 214.5q13 -50.5 42.5 -94.5t67.5 -44v-76h-449q0 57 -42.5 104.5t-118.5 47.5v76h215q-43 75 -136 76h-4v76h411v-76q1 -39 14 -89.5zM332 228h160q-40 76 -108 76h-188q49 -75 136 -76zM527 76q0 34 -8 76h-398q48 -76 135 -76h1h270z" />
    <glyph glyph-name="B_orn2" horiz-adv-x="650" 
d="M415 152q43 -75 136 -76h4v-76h-411v76q-1 39 -14 89.5t-42.5 94.5t-67.5 44v76h449q0 -57 42.5 -104.5t118.5 -47.5v-76h-215zM394 304h-1h-270q0 -34 8 -76h398q-48 76 -135 76zM318 152h-160q40 -76 108 -76h188q-49 75 -136 76z" />
    <glyph glyph-name="B_orn3" horiz-adv-x="650" 
d="M630 304q-38 0 -67.5 -44t-42.5 -94.5t-14 -89.5v-76h-411v76h4q93 1 136 76h-215v76q76 0 118.5 47.5t42.5 104.5h449v-76zM527 304h-270h-1q-87 0 -135 -76h398q8 42 8 76zM384 76q68 0 108 76h-160q-87 -1 -136 -76h188z" />
    <glyph glyph-name="C_orn1" horiz-adv-x="640" 
d="M490.5 204.5q13.5 -49.5 47.5 -89t82 -39.5h-4v-76h-596v76h478q0 39 -13 89.5t-43 94.5t-68 44h-117q-71 0 -110.5 -45.5t-50.5 -106.5h-76v76q75 0 114.5 45.5t47.5 106.5h295v-76q0 -50 13.5 -99.5z" />
    <glyph glyph-name="C_orn2" horiz-adv-x="640" 
d="M198 260q-30 -44 -43 -94.5t-13 -89.5h478v-76h-596v76h-4q48 0 82 39.5t47.5 89t13.5 99.5v76h295q8 -61 47.5 -106.5t114.5 -45.5v-76h-76q-11 61 -50.5 106.5t-110.5 45.5h-117q-38 0 -68 -44z" />
    <glyph glyph-name="C_orn3" horiz-adv-x="640" 
d="M620 304q-48 0 -82 -39.5t-47.5 -89t-13.5 -99.5v-76h-295q-8 61 -47.5 106.5t-114.5 45.5v76h76q11 -61 50.5 -106.5t110.5 -45.5h117q38 0 68 44t43 94.5t13 89.5h-478v76h596v-76h4z" />
    <glyph glyph-name="D_orn1" horiz-adv-x="656" 
d="M506.5 204.5q13.5 -49.5 47.5 -89t82 -39.5v-76h-455q0 52 -44.5 102t-116.5 50v76q72 0 116.5 50t44.5 102h312v-76q0 -50 13.5 -99.5zM514 76q0 40 -13 90.5t-43 94t-68 43.5h-133q-63 0 -103 -33t-53 -81q13 -48 53 -81t103 -33h257z" />
    <glyph glyph-name="D_orn2" horiz-adv-x="656" 
d="M519.5 278q44.5 -50 116.5 -50v-76q-72 0 -116.5 -50t-44.5 -102h-455v76q48 0 82 39.5t47.5 89t13.5 99.5v76h312q0 -52 44.5 -102zM502 109q40 33 53 81q-13 48 -53 81t-103 33h-133q-38 0 -68 -43.5t-43 -94t-13 -90.5h257q63 0 103 33z" />
    <glyph glyph-name="D_orn3" horiz-adv-x="656" 
d="M636 304q-48 0 -82 -39.5t-47.5 -89t-13.5 -99.5v-76h-312q0 52 -44.5 102t-116.5 50v76q72 0 116.5 50t44.5 102h455v-76zM458 119.5q30 43.5 43 94t13 90.5h-257q-63 0 -103 -33t-53 -81q13 -48 53 -81t103 -33h133q38 0 68 43.5z" />
    <glyph glyph-name="E_orn1" horiz-adv-x="610" 
d="M475 209.5q13 -50.5 44 -92t71 -41.5v-76h-530v76h423q0 36 -9 76h-240v76h214q-37 76 -93 76h-98q-74 0 -117.5 -49.5t-43.5 -102.5h-76v76q74 0 117.5 49.5t43.5 102.5h281v-76q0 -44 13 -94.5z" />
    <glyph glyph-name="E_orn2" horiz-adv-x="610" 
d="M162 228h214v-76h-240q-9 -41 -9 -76h423v-76h-530v76q40 0 71 41.5t44 92t13 94.5v76h281q0 -53 43.5 -102.5t117.5 -49.5v-76h-76q0 53 -43.5 102.5t-117.5 49.5h-98q-56 0 -93 -76z" />
    <glyph glyph-name="E_orn3" horiz-adv-x="610" 
d="M590 380v-76q-40 0 -71 -41.5t-44 -92t-13 -94.5v-76h-281q0 53 -43.5 102.5t-117.5 49.5v76h76q0 -53 43.5 -102.5t117.5 -49.5h98q56 0 93 76h-214v76h240q9 41 9 76h-423v76h530z" />
    <glyph glyph-name="F_orn1" horiz-adv-x="570" 
d="M550 76v-76h-530v76q48 0 82 39.5t47.5 89t13.5 99.5v76h107v-76h-4q-51 0 -88 -76h215v-76h-241q-10 -41 -10 -76h408z" />
    <glyph glyph-name="F_orn2" horiz-adv-x="570" 
d="M550 380v-76q-48 0 -82 -39.5t-47.5 -89t-13.5 -99.5v-76h-107v76h4q51 0 88 76h-215v76h241q10 41 10 76h-408v76h530z" />
    <glyph glyph-name="F_orn3" horiz-adv-x="570" 
d="M420.5 204.5q13.5 -49.5 47.5 -89t82 -39.5v-76h-530v76h408q0 35 -10 76h-241v76h215q-37 76 -88 76h-4v76h107v-76q0 -50 13.5 -99.5z" />
    <glyph glyph-name="G_orn1" horiz-adv-x="610" 
d="M329 228h161q-48 76 -137 76h-230q0 -50 13.5 -99.5t47.5 -89t82 -39.5h324v-76h-446v76q0 40 -13 90.5t-43 94t-68 43.5v76h409q0 -57 42.5 -104.5t118.5 -47.5v-76h-261v76z" />
    <glyph glyph-name="G_orn2" horiz-adv-x="610" 
d="M479 213.5q13 -50.5 43 -94t68 -43.5v-76h-409q0 57 -42.5 104.5t-118.5 47.5v76h261v-76h-161q48 -76 137 -76h230q0 50 -13.5 99.5t-47.5 89t-82 39.5h-324v76h446v-76q0 -40 13 -90.5z" />
    <glyph glyph-name="G_orn3" horiz-adv-x="610" 
d="M590 304q-38 0 -68 -43.5t-43 -94t-13 -90.5v-76h-446v76h324q48 0 82 39.5t47.5 89t13.5 99.5h-230q-89 0 -137 -76h161v-76h-261v76q76 0 118.5 47.5t42.5 104.5h409v-76z" />
    <glyph glyph-name="H_orn1" horiz-adv-x="584" 
d="M447.5 278q44.5 -50 116.5 -50v-228h-76v152h-372q46 -77 141 -77h93v-76h-169q0 52 -44.5 102t-116.5 50v229h76v-152h371q-43 76 -140 76h-93v76h169q0 -52 44.5 -102z" />
    <glyph glyph-name="I_orn1" 
d="M24 152q-4 0 -4 3v70q0 3 4 3q44 1 77 20.5t49.5 48.5t23.5 48t9 32q1 3 4 3h369q4 0 4 -3v-70q0 -3 -4 -3h-108q-31 0 -64.5 -22t-63 -59t-51.5 -72.5t-43 -74.5h98q37 0 66.5 14.5t45.5 32t28 42.5t15 36.5t6 23.5q0 3 3 3h68q4 0 4 -3v-70q0 -3 -3 -3
q-38 -1 -67.5 -15.5t-45 -32t-27 -42t-14 -36t-4.5 -23.5q0 -3 -4 -3h-371q-4 0 -4 3v70q0 3 4 3h108q29 0 60 22t57.5 59t47 72t38.5 75h-76q-47 0 -81.5 -19.5t-50 -49t-22 -48.5t-7.5 -33q0 -2 -4 -2h-70z" />
    <glyph glyph-name="J_orn1" 
d="M560 228v-76q-76 0 -118.5 -47.5t-42.5 -104.5h-236v76q0 50 -13.5 100t-47.5 89t-82 39v76h379v-76h-257q0 -39 13 -89.5t43 -94.5t68 -44h57q72 0 116.5 50t44.5 102h76z" />
    <glyph glyph-name="J_orn2" 
d="M430.5 204q13.5 -50 47.5 -89t82 -39v-76h-379v76h257q0 39 -13 89.5t-43 94.5t-68 44h-57q-72 0 -116.5 -50t-44.5 -102h-76v76q76 0 118.5 47.5t42.5 104.5h236v-76q0 -50 13.5 -100z" />
    <glyph glyph-name="J_orn3" 
d="M441.5 275.5q42.5 -47.5 118.5 -47.5v-76h-76q0 52 -44.5 102t-116.5 50h-57q-38 0 -68 -44t-43 -94.5t-13 -89.5h257v-76h-379v76q48 0 82 39t47.5 89t13.5 100v76h236q0 -57 42.5 -104.5z" />
    <glyph glyph-name="K_orn1" horiz-adv-x="609" 
d="M589 380v-380h-76v152h-182q-76 0 -118.5 -47.5t-42.5 -104.5h-150v76h74q72 1 116.5 50.5t44.5 101.5h131q-43 76 -140 76h-136v76h212q0 -52 44.5 -102t116.5 -50h30v152h76z" />
    <glyph glyph-name="K_orn2" horiz-adv-x="609" 
d="M589 304h-74q-72 -1 -116.5 -50.5t-44.5 -101.5h-131q43 -76 140 -76h136v-76h-212q0 52 -44.5 102t-116.5 50h-30v-152h-76v380h76v-152h182q76 0 118.5 47.5t42.5 104.5h150v-76z" />
    <glyph glyph-name="K_orn3" horiz-adv-x="609" 
d="M589 380v-380h-76v152h-30q-72 0 -116.5 -50t-44.5 -102h-212v76h136q97 0 140 76h-131q0 52 -44.5 101.5t-116.5 50.5h-74v76h150q0 -57 42.5 -104.5t118.5 -47.5h182v152h76z" />
    <glyph glyph-name="L_orn1" horiz-adv-x="610" 
d="M471.5 275.5q42.5 -47.5 118.5 -47.5v-76h-76q0 52 -44.5 102t-116.5 50h-230q0 -50 13.5 -100t47.5 -89t82 -39h113v-76h-235v76q0 39 -13 89.5t-43 94.5t-68 44h1v76h408q0 -57 42.5 -104.5z" />
    <glyph glyph-name="L_orn2" horiz-adv-x="610" 
d="M590 304q-38 0 -68 -44t-43 -94.5t-13 -89.5v-76h-235v76h113q48 0 82 39t47.5 89t13.5 100h-230q-72 0 -116.5 -50t-44.5 -102h-76v76q76 0 118.5 47.5t42.5 104.5h408v-76h1z" />
    <glyph glyph-name="L_orn3" horiz-adv-x="610" 
d="M479 214.5q13 -50.5 43 -94.5t68 -44h-1v-76h-408q0 57 -42.5 104.5t-118.5 47.5v76h76q0 -52 44.5 -102t116.5 -50h230q0 50 -13.5 100t-47.5 89t-82 39h-113v76h235v-76q0 -39 13 -89.5z" />
    <glyph glyph-name="M_orn1" horiz-adv-x="816" 
d="M678.5 277.5q43.5 -49.5 117.5 -49.5v-76q-74 0 -117.5 -49.5t-43.5 -102.5h-151v152q0 53 -43.5 102.5t-117.5 49.5h-81q0 -48 78 -138t128 -90v-76h-267q0 53 -43.5 102.5t-117.5 49.5v228h76v-152q0 -53 43.5 -102.5t117.5 -49.5h81q0 46 -78 137t-128 91v76h267
q0 -53 43.5 -102.5t117.5 -49.5v-152q60 0 100 33.5t54 80.5q-14 47 -54.5 80.5t-100.5 33.5h-79v76h155q0 -53 43.5 -102.5z" />
    <glyph glyph-name="M_orn2" horiz-adv-x="816" 
d="M678.5 277.5q43.5 -49.5 117.5 -49.5v-228h-76v152q0 53 -43.5 102.5t-117.5 49.5h-81q0 -46 78 -137t128 -91v-76h-267q0 53 -43.5 102.5t-117.5 49.5v152q-60 0 -100 -33.5t-54 -80.5q14 -47 54.5 -80.5t100.5 -33.5h79v-76h-155q0 53 -43.5 102.5t-117.5 49.5v76
q74 0 117.5 49.5t43.5 102.5h151v-152q0 -53 43.5 -102.5t117.5 -49.5h81q0 48 -78 138t-128 90v76h267q0 -53 43.5 -102.5z" />
    <glyph glyph-name="M_orn3" horiz-adv-x="816" 
d="M796 380v-228q-74 0 -117.5 -49.5t-43.5 -102.5h-267v76q50 0 128 90t78 138h-81q-74 0 -117.5 -49.5t-43.5 -102.5v-152h-151q0 53 -43.5 102.5t-117.5 49.5v76q74 0 117.5 49.5t43.5 102.5h155v-76h-79q-60 0 -100.5 -33.5t-54.5 -80.5q14 -47 54 -80.5t100 -33.5v152
q74 0 117.5 49.5t43.5 102.5h267v-76q-50 0 -128 -91t-78 -137h81q74 0 117.5 49.5t43.5 102.5v152h76z" />
    <glyph glyph-name="N_orn1" horiz-adv-x="646" 
d="M626 380v-228q-74 0 -117.5 -49.5t-43.5 -102.5h-146v76h70q74 0 117.5 49.5t43.5 102.5v76h-76q-50 0 -128 -90t-78 -138v-75h-248v227q74 0 117.5 49.5t43.5 102.5h128v-76h-52q-74 0 -117.5 -49.5t-43.5 -102.5v-75h72q52 10 124 97t72 130v76h262z" />
    <glyph glyph-name="O_orn1" horiz-adv-x="605" 
d="M457 167q78 -91 128 -91v-76h-404q0 53 -43.5 102.5t-117.5 49.5v228h359v-76q0 -46 78 -137zM475 76q0 48 -78 138t-128 90h-173v-76q0 -53 43.5 -102.5t117.5 -49.5h218z" />
    <glyph glyph-name="O_orn2" horiz-adv-x="605" 
d="M467.5 277.5q43.5 -49.5 117.5 -49.5v-228h-359v76q0 46 -78 137t-128 91v76h404q0 -53 43.5 -102.5zM509 152q0 53 -43.5 102.5t-117.5 49.5h-218q0 -48 78 -138t128 -90h173v76z" />
    <glyph glyph-name="O_orn3" horiz-adv-x="605" 
d="M585 304q-50 0 -128 -91t-78 -137v-76h-359v228q74 0 117.5 49.5t43.5 102.5h404v-76zM397 166q78 90 78 138h-218q-74 0 -117.5 -49.5t-43.5 -102.5v-76h173q50 0 128 90z" />
    <glyph glyph-name="P_orn1" 
d="M20 0v380h76v-152h464v-76q-38 0 -69 -15t-47 -35t-27 -44.5t-14 -37.5t-4 -20h-379zM96 76h227q93 0 137 76h-364v-76z" />
    <glyph glyph-name="P_orn2" 
d="M560 380v-380h-76v152h-464v76q38 0 69 15t47 35t27 44.5t14 37.5t4 20h379zM484 304h-227q-93 0 -137 -76h364v76z" />
    <glyph glyph-name="P_orn3" 
d="M177 20q-3 13 -14 37.5t-27 44.5t-47 35t-69 15v76h464v152h76v-380h-379q-1 7 -4 20zM120 152q44 -76 137 -76h227v76h-364z" />
    <glyph glyph-name="Q_orn1" horiz-adv-x="605" 
d="M466 275.5q42 -47.5 119 -47.5v-228h-371v76q0 23 -20 65q-47 -18 -71.5 -58t-24.5 -83h-76v76q55 1 93 30t56 72q-34 51 -77 88.5t-74 37.5v76h404q0 -57 42 -104.5zM509 152q0 52 -44.5 102t-116.5 50h-225q20 -65 91.5 -146.5t121.5 -81.5h173v76z" />
    <glyph glyph-name="Q_orn2" horiz-adv-x="605" 
d="M511 113.5q43 -37.5 74 -37.5v-76h-404q0 57 -42 104.5t-119 47.5v228h371v-76q0 -23 20 -65q47 18 71.5 58t24.5 83h76v-76q-55 -1 -93 -30t-56 -72q34 -51 77 -88.5zM482 76q-20 65 -91.5 146.5t-121.5 81.5h-173v-76q0 -52 44.5 -102t116.5 -50h225z" />
    <glyph glyph-name="Q_orn3" horiz-adv-x="605" 
d="M585 380v-228q-77 0 -119 -47.5t-42 -104.5h-404v76q31 0 74 37.5t77 88.5q-18 43 -56 72t-93 30v76h76q0 -43 24.5 -83t71.5 -58q20 42 20 65v76h371zM509 304h-173q-50 0 -121.5 -81.5t-91.5 -146.5h225q72 0 116.5 50t44.5 102v76z" />
    <glyph glyph-name="R_orn1" horiz-adv-x="600" 
d="M462.5 277.5q43.5 -49.5 117.5 -49.5v-228h-76v152h-247q-74 0 -117.5 -49.5t-43.5 -102.5h-76v76q60 0 100.5 33.5t54.5 80.5q-14 47 -54.5 80.5t-100.5 33.5v76h399q0 -53 43.5 -102.5zM481 228q-46 76 -138 76h-224q46 -76 138 -76h224z" />
    <glyph glyph-name="R_orn2" horiz-adv-x="600" 
d="M479.5 270.5q-40.5 -33.5 -54.5 -80.5q14 -47 54.5 -80.5t100.5 -33.5v-76h-399q0 53 -43.5 102.5t-117.5 49.5v228h76v-152h247q74 0 117.5 49.5t43.5 102.5h76v-76q-60 0 -100.5 -33.5zM343 152h-224q46 -76 138 -76h224q-46 76 -138 76z" />
    <glyph glyph-name="R_orn3" horiz-adv-x="600" 
d="M580 380v-228q-74 0 -117.5 -49.5t-43.5 -102.5h-399v76q60 0 100.5 33.5t54.5 80.5q-14 47 -54.5 80.5t-100.5 33.5v76h76q0 -53 43.5 -102.5t117.5 -49.5h247v152h76zM481 152h-224q-92 0 -138 -76h224q92 0 138 76z" />
    <glyph glyph-name="S_orn1" horiz-adv-x="600" 
d="M23 304q-3 0 -3 3v70q0 3 3 3h392q4 0 4 -2q2 -10 5.5 -23.5t15 -37t27 -42t44.5 -32.5t65 -15q4 0 4 -3v-70q0 -3 -4 -3h-453q44 -76 133 -76h320q4 0 4 -3v-70q0 -3 -4 -3h-391q-4 0 -4 3q-2 12 -4.5 23.5t-14 36t-27 42t-45 32t-67.5 15.5q-3 0 -3 3v70q0 3 3 3h457
q-44 76 -137 76h-320z" />
    <glyph glyph-name="T_orn1" horiz-adv-x="581" 
d="M561 228v-228h-379q0 53 -43.5 102.5t-117.5 49.5v76h76q0 -53 43.5 -102.5t117.5 -49.5h72q0 43 -12.5 92t-41.5 90.5t-67 45.5l-189 -1v76l289 1v-76q0 -44 13 -94.5t44 -92t71 -41.5h48v152h76z" />
    <glyph glyph-name="T_orn2" horiz-adv-x="581" 
d="M561 77v-76l-289 -1v76q0 44 -13 94.5t-44 92t-71 41.5h-48v-152h-76v228h379q0 -53 43.5 -102.5t117.5 -49.5v-76h-76q0 53 -43.5 102.5t-117.5 49.5h-72q0 -43 12.5 -92t41.5 -90.5t67 -45.5z" />
    <glyph glyph-name="T_orn3" horiz-adv-x="581" 
d="M305 258.5q-29 -41.5 -41.5 -90.5t-12.5 -92h72q74 0 117.5 49.5t43.5 102.5h76v-76q-74 0 -117.5 -49.5t-43.5 -102.5h-379v228h76v-152h48q40 0 71 41.5t44 92t13 94.5v76l289 -1v-76l-189 1q-38 -4 -67 -45.5z" />
    <glyph glyph-name="U_orn1" horiz-adv-x="608" 
d="M473 209.5q13 -50.5 44 -92t71 -41.5v-76h-407q0 53 -43.5 102.5t-117.5 49.5v228h76v-152q0 -53 43.5 -102.5t117.5 -49.5h224q0 44 -13 94.5t-44 92t-71 41.5h-95v76h202v-76q0 -44 13 -94.5z" />
    <glyph glyph-name="U_orn2" horiz-adv-x="608" 
d="M470.5 277.5q43.5 -49.5 117.5 -49.5v-228h-76v152q0 53 -43.5 102.5t-117.5 49.5h-224q0 -44 13 -94.5t44 -92t71 -41.5h95v-76h-202v76q0 44 -13 94.5t-44 92t-71 41.5v76h407q0 -53 43.5 -102.5z" />
    <glyph glyph-name="U_orn3" horiz-adv-x="608" 
d="M588 304q-40 0 -71 -41.5t-44 -92t-13 -94.5v-76h-202v76h95q40 0 71 41.5t44 92t13 94.5h-224q-74 0 -117.5 -49.5t-43.5 -102.5v-152h-76v228q74 0 117.5 49.5t43.5 102.5h407v-76z" />
    <glyph glyph-name="V_orn1" horiz-adv-x="608" 
d="M458.5 204.5q13.5 -49.5 47.5 -89t82 -39.5h-1v-76h-330v76h209q0 28 -8 65t-22.5 74.5t-39.5 63t-54 25.5h-85q-72 0 -116.5 -50t-44.5 -102v-152h-76v228q77 -1 119.5 46t41.5 106h264v-76q0 -50 13.5 -99.5z" />
    <glyph glyph-name="V_orn2" horiz-adv-x="608" 
d="M468.5 274q42.5 -47 119.5 -46v-228h-76v152q0 52 -44.5 102t-116.5 50h-85q-29 0 -54 -25.5t-39.5 -63t-22.5 -74.5t-8 -65h209v-76h-330v76h-1q48 0 82 39.5t47.5 89t13.5 99.5v76h264q-1 -59 41.5 -106z" />
    <glyph glyph-name="V_orn3" horiz-adv-x="608" 
d="M588 304q-48 0 -82 -39.5t-47.5 -89t-13.5 -99.5v-76h-264q1 59 -41.5 106t-119.5 46v228h76v-152q0 -52 44.5 -102t116.5 -50h85q29 0 54 25.5t39.5 63t22.5 74.5t8 65h-209v76h330v-76h1z" />
    <glyph glyph-name="W_orn1" horiz-adv-x="841" 
d="M821 380v-76q-48 0 -82 -39t-47.5 -89t-13.5 -100v-76h-239v76q0 35 -7 67q-48 -17 -74 -57.5t-25 -85.5h-152q1 59 -41.5 106t-119.5 46v228h76v-152q0 -52 44.5 -102.5t116.5 -49.5q63 0 105.5 39.5t52.5 88.5q-41 101 -119 100h-114v76h236v-76q0 -28 8 -65
t22.5 -74.5t39.5 -63t54 -25.5h33q29 0 54 25t39.5 62.5t22.5 74.5t8 66h-189v76h311z" />
    <glyph glyph-name="W_orn2" horiz-adv-x="841" 
d="M821 380v-228q-77 1 -119.5 -46t-41.5 -106h-152q1 45 -25 85.5t-74 57.5q-7 -32 -7 -67v-76h-239v76q0 50 -13.5 100t-47.5 89t-82 39v76h311v-76h-189q0 -29 8 -66t22.5 -74.5t39.5 -62.5t54 -25h33q29 0 54 25.5t39.5 63t22.5 74.5t8 65v76h236v-76h-114
q-78 1 -119 -100q10 -49 52.5 -88.5t105.5 -39.5q72 -1 116.5 49.5t44.5 102.5v152h76z" />
    <glyph glyph-name="X_orn1" horiz-adv-x="738" 
d="M390 216q5 -51 48.5 -95.5t111.5 -44.5h168v-76h-244q1 46 -26.5 87.5t-79.5 57.5q-7 -34 -7 -69v-76h-180q1 59 -41.5 106t-119.5 46v76h76q0 -51 43.5 -101t114.5 -51h6q53 1 91 88q-5 51 -48.5 95.5t-111.5 44.5h-169v76h245q-1 -46 26.5 -87.5t79.5 -57.5q7 34 7 69
v76h177q-1 -59 41.5 -106t119.5 -46v-76h-76q0 51 -44 101t-114 51h-3q-53 -1 -91 -88z" />
    <glyph glyph-name="X_orn4" horiz-adv-x="738" 
d="M718 228v-76q-77 1 -119.5 -46t-41.5 -106h-180v76q0 35 -7 69q-52 -16 -79.5 -57.5t-26.5 -87.5h-244v76h168q68 0 111.5 44.5t48.5 95.5q-38 87 -91 88h-3q-70 -1 -114 -51t-44 -101h-76v76q77 -1 119.5 46t41.5 106h177v-76q0 -35 7 -69q52 16 79.5 57.5t26.5 87.5
h245v-76h-169q-68 0 -111.5 -44.5t-48.5 -95.5q38 -87 91 -88h6q71 1 114.5 51t43.5 101h76z" />
    <glyph glyph-name="Y_orn1" horiz-adv-x="624" 
d="M604 228v-228h-76v152h-274q-70 -1 -114 -51t-44 -101h-76v76q76 0 118 45.5t43 102.5v4h251q-43 76 -141 76h-271v76h347q0 -51 44 -101t114 -51h79z" />
    <glyph glyph-name="Y_orn2" horiz-adv-x="624" 
d="M192 152q43 -76 141 -76h271v-76h-347q0 51 -44 101t-114 51h-79v228h76v-152h274q70 1 114 51t44 101h76v-76q-76 0 -118 -45.5t-43 -102.5v-4h-251z" />
    <glyph glyph-name="Y_orn3" horiz-adv-x="624" 
d="M192 228h251v-4q1 -57 43 -102.5t118 -45.5v-76h-76q0 51 -44 101t-114 51h-274v-152h-76v228h79q70 1 114 51t44 101h347v-76h-271q-98 0 -141 -76z" />
    <glyph glyph-name="Z_orn1" horiz-adv-x="657" 
d="M227 76h410v-76h-541v76q80 0 136 48.5t55 103.5h83q51 0 94 21.5t68 54.5h-275q-78 0 -120 -47t-41 -105h-76v76q72 0 116.5 50.5t44.5 101.5h380v-3v3h76v-76q-72 0 -116.5 -50.5t-44.5 -101.5h-113q-88 0 -136 -76z" />
    <glyph glyph-name="Z_orn2" horiz-adv-x="657" 
d="M520.5 278.5q44.5 -50.5 116.5 -50.5v-76h-76q1 58 -41 105t-120 47h-275q25 -33 68 -54.5t94 -21.5h83q-1 -55 55 -103.5t136 -48.5v-76h-541v76h410q-48 76 -136 76h-113q0 51 -44.5 101.5t-116.5 50.5v76h76v-3v3h380q0 -51 44.5 -101.5z" />
    <glyph glyph-name="Z_orn3" horiz-adv-x="657" 
d="M637 304h-410q48 -76 136 -76h113q0 -51 44.5 -101.5t116.5 -50.5v-76h-76v3v-3h-380q0 51 -44.5 101.5t-116.5 50.5v76h76q-1 -58 41 -105t120 -47h275q-25 33 -68 54.5t-94 21.5h-83q1 55 -55 103.5t-136 48.5v76h541v-76z" />
    <glyph glyph-name="O.ss01" horiz-adv-x="605" 
d="M457 167q78 -91 128 -91v-76h-404q0 53 -43.5 102.5t-117.5 49.5v228h359v-76q0 -46 78 -137zM475 76q0 48 -78 138t-128 90h-173v-76q0 -53 43.5 -102.5t117.5 -49.5h218z" />
    <glyph glyph-name="nouveauGlyphe" horiz-adv-x="600" 
 />
    <glyph glyph-name="link1" horiz-adv-x="650" 
d="M630 228v-76h-505l19 76h486z" />
    <glyph glyph-name="link2" horiz-adv-x="600" 
 />
    <glyph glyph-name="link3" horiz-adv-x="600" 
 />
    <glyph glyph-name="link2_light" horiz-adv-x="610" 
d="M163 76q0 50 -13.5 99.5t-47.5 89t-82 39.5h122q0 -39 13 -89.5t43 -94.5t68 -44h-103z" />
    <glyph glyph-name="link1_light" horiz-adv-x="600" 
 />
    <glyph glyph-name="link_regular1" horiz-adv-x="275" 
d="M91 117.5q31 41.5 44 92t13 94.5h107q-40 0 -71 -41.5t-44 -92t-13 -94.5h-107q40 0 71 41.5z" />
    <glyph glyph-name="link_regular2" horiz-adv-x="277" 
d="M257 152q-74 0 -117.5 -49.5t-43.5 -102.5h-76v76q74 0 117.5 49.5t43.5 102.5h76v-76z" />
    <glyph glyph-name="link_regular3" horiz-adv-x="549" 
d="M378 76q0 48 -78 138t-128 90h110q0 -46 78 -137t128 -91h-110z" />
    <glyph glyph-name="link3_light" horiz-adv-x="816" 
d="M96 0h-76v171h76v-171z" />
    </font>
</defs>
</svg>
